# xmcd
#
# Track frame offsets:
#	150
#	39937
#	55817
#	70285
#	87205
#	107820
#	142722
#	170025
#	183625
#	197630
#	214007
#
# Disc length: 3147 seconds
#
# Revision: 2
# Processed by: cddbd v1.4PL0 Copyright (c) Steve Scherf et al.
# Submitted via: EasyCDDAExtractor 6.2.0.3
#
DISCID=980c490b
DTITLE=Peter Green - Collection Disc 2
DYEAR=1900
DGENRE=Blues
TTITLE0=White Sky
TTITLE1=Indian Lover
TTITLE2=Apostle
TTITLE3=Same Old Blues
TTITLE4=Six String Guitar
TTITLE5=A Fool No More
TTITLE6=The Clown
TTITLE7=Born On The Wild Side
TTITLE8=Seven Stars
TTITLE9=You Won't See Me Anymore
TTITLE10=Strangers Blues
EXTD=
EXTT0=
EXTT1=
EXTT2=
EXTT3=
EXTT4=
EXTT5=
EXTT6=
EXTT7=
EXTT8=
EXTT9=
EXTT10=
PLAYORDER=
